<?xml version="1.0" encoding="UTF-8" standalone="no"?>
<!-- Generator: Gravit.io -->

<svg
   style="isolation:isolate"
   viewBox="265.504 142.199 310.882 310.882"
   width="310.882pt"
   height="310.882pt"
   version="1.1"
   id="svg11"
   sodipodi:docname="marshmallow.svg"
   inkscape:version="1.4.2 (f4327f4, 2025-05-13)"
   xmlns:inkscape="http://www.inkscape.org/namespaces/inkscape"
   xmlns:sodipodi="http://sodipodi.sourceforge.net/DTD/sodipodi-0.dtd"
   xmlns="http://www.w3.org/2000/svg"
   xmlns:svg="http://www.w3.org/2000/svg">
  <defs
     id="defs11" />
  <sodipodi:namedview
     id="namedview11"
     pagecolor="#ffffff"
     bordercolor="#000000"
     borderopacity="0.25"
     inkscape:showpageshadow="2"
     inkscape:pageopacity="0.0"
     inkscape:pagecheckerboard="0"
     inkscape:deskcolor="#d1d1d1"
     inkscape:document-units="pt"
     showgrid="false"
     inkscape:zoom="2.1109296"
     inkscape:cx="207.25466"
     inkscape:cy="207.25466"
     inkscape:window-width="1920"
     inkscape:window-height="1129"
     inkscape:window-x="-8"
     inkscape:window-y="-8"
     inkscape:window-maximized="1"
     inkscape:current-layer="svg11" />
  <path
     id="path1"
     d="M 396.32041 142.25906 C 390.15845 141.92564 383.66811 142.99886 376.45273 145.49636 C 357.79373 151.95536 336.40731 165.93631 312.82431 189.51931 C 289.24031 213.10331 275.26036 234.48873 268.80136 253.14773 C 262.14136 272.38873 265.60228 286.48101 278.88828 302.90701 C 301.15128 330.42901 324.5015 353.13777 348.6705 372.68777 C 365.0955 385.97377 379.18878 389.43468 398.42978 382.77468 C 417.08878 376.31668 438.4742 362.3362 462.0582 338.7532 C 485.6422 315.1692 499.62068 293.78378 506.07968 275.12478 C 512.73968 255.88378 509.27877 241.7905 495.99277 225.3655 C 476.44177 201.1965 453.73354 177.84628 426.21054 155.58328 C 415.94492 147.27953 406.59033 142.81476 396.32041 142.25906 z M 383.24814 160.75711 C 388.03352 161.03662 390.91859 164.90952 388.83359 170.92752 C 383.79659 185.46552 370.80774 205.55174 350.03574 226.73074 C 331.24974 245.88474 315.26266 257.44046 298.55966 264.45046 C 295.88466 265.57246 293.84967 269.05007 295.28867 272.96707 C 297.30567 278.45507 300.81244 278.64131 303.50644 277.91531 C 319.30744 273.65631 341.68296 257.43896 361.21396 237.90896 C 383.63096 215.49196 398.51006 193.97635 405.43906 173.95535 C 406.83006 169.93835 407.7755 166.15331 408.2955 162.51931 C 411.6455 164.36331 415.10989 166.8148 418.86289 169.8948 C 442.90189 189.6158 462.07871 208.47816 481.68271 232.71316 C 493.57771 247.41916 496.23575 257.60657 489.84775 273.63357 C 483.21375 290.27357 470.14025 308.41578 450.93125 327.62478 C 431.72225 346.83478 413.57857 359.90729 396.93857 366.54129 C 380.91157 372.93129 370.64216 370.37471 356.01816 358.37771 C 331.92016 338.60671 312.9218 319.59689 293.1998 295.55789 C 281.2028 280.93389 278.6443 270.66448 285.0333 254.63748 C 291.6673 237.99748 304.74227 219.85527 323.95127 200.64627 C 343.16127 181.43727 361.30348 168.3623 377.94248 161.7283 C 379.84598 160.96955 381.65302 160.66393 383.24814 160.75711 z "
     style="fill:#ffffff;fill-opacity:1" />
  <path
     d="m 414.078,404.376 c -3.208,3.209 -2.518,5.333 -0.35,7.501 l 39.361,39.36 c 2.168,2.168 4.292,2.86 7.501,-0.349 3.209,-3.209 2.517,-5.333 0.349,-7.502 l -39.359,-39.36 c -2.168,-2.168 -4.293,-2.859 -7.502,0.35 z"
     fill-rule="evenodd"
     fill="#4d4d4d"
     id="path3"
     style="fill:#ffffff;fill-opacity:1" />
  <path
     d="m 527.681,290.773 c -3.209,3.209 -2.518,5.333 -0.35,7.501 l 39.36,39.36 c 2.168,2.169 4.293,2.859 7.501,-0.35 3.209,-3.209 2.518,-5.333 0.35,-7.501 l -39.36,-39.36 c -2.168,-2.168 -4.292,-2.858 -7.501,0.35 z"
     fill-rule="evenodd"
     fill="#4d4d4d"
     id="path4"
     style="fill:#ffffff;fill-opacity:1" />
  <path
     d="m 475.013,351.708 c -3.208,3.208 -2.518,5.333 -0.35,7.501 l 39.361,39.359 c 2.168,2.168 4.292,2.86 7.501,-0.349 3.209,-3.209 2.517,-5.333 0.349,-7.501 l -39.359,-39.361 c -2.169,-2.168 -4.293,-2.858 -7.502,0.351 z"
     fill-rule="evenodd"
     fill="#4d4d4d"
     id="path5"
     style="fill:#ffffff;fill-opacity:1" />
  <path
     d="m 344.685,284.562 c -4.759,4.758 -4.759,12.474 0,17.231 4.759,4.759 12.474,4.759 17.232,0 4.758,-4.757 4.758,-12.473 0,-17.231 -4.758,-4.759 -12.473,-4.759 -17.232,0 z"
     fill-rule="evenodd"
     fill="#4d4d4d"
     id="path6"
     style="fill:#ffffff;fill-opacity:1" />
  <path
     d="m 360.628,328.056 c -5.396,5.396 -5.396,14.144 0,19.539 5.396,5.397 14.144,5.397 19.539,0 5.396,-5.395 5.396,-14.143 0,-19.539 -5.395,-5.396 -14.143,-5.396 -19.539,0 z"
     fill-rule="evenodd"
     fill="#f8b193"
     id="path7"
     style="fill:#ffffff;fill-opacity:1" />
  <path
     d="m 451.361,256.862 c 5.396,5.396 14.144,5.396 19.539,0 5.396,-5.396 5.396,-14.144 0,-19.539 -5.395,-5.396 -14.143,-5.396 -19.539,0 -5.396,5.395 -5.396,14.143 0,19.539 z"
     fill-rule="evenodd"
     fill="#f8b193"
     id="path8"
     style="fill:#ffffff;fill-opacity:1" />
  <path
     d="m 425.098,238.612 c 4.759,-4.758 4.759,-12.474 0,-17.232 -4.759,-4.759 -12.474,-4.759 -17.232,0 -4.758,4.758 -4.758,12.474 0.001,17.232 4.757,4.758 12.472,4.758 17.231,0 z"
     fill-rule="evenodd"
     fill="#4d4d4d"
     id="path9"
     style="fill:#ffffff;fill-opacity:1" />
  <path
     id="path10"
     d="M 430.86435 271.89041 C 429.60421 271.85366 428.33533 272.44381 427.26377 273.65994 C 423.47577 277.96194 420.96608 282.27254 413.45908 289.78054 C 405.95108 297.28854 401.63901 299.7987 397.33701 303.5867 C 395.17501 305.4907 394.99262 308.01843 396.79062 310.01443 C 407.62362 322.04343 423.33704 320.03197 433.52304 309.84597 C 443.70904 299.65897 445.72196 283.94555 433.69296 273.11355 C 432.81928 272.32649 431.84446 271.91899 430.86435 271.89041 z M 433.80722 291.55593 C 434.29122 291.57693 434.6584 291.91729 434.7374 292.39529 C 435.3324 295.99229 432.43664 301.71264 428.91464 305.23464 C 425.39264 308.75664 419.67082 311.65486 416.07382 311.05886 C 415.59682 310.97986 415.25547 310.61169 415.23447 310.12869 C 415.05647 306.00569 417.34653 300.81546 420.91953 297.24246 C 424.49353 293.66846 429.68522 291.37793 433.80722 291.55593 z "
     style="fill:#ffffff;fill-opacity:1" />
</svg>
